<svg xmlns="http://www.w3.org/2000/svg" width="48" height="48" viewBox="0 0 48 48"><g transform="translate(-274 -3134)"><g transform="translate(220.397 2928.707)"><path d="M6.432,0H41.568A6.432,6.432,0,0,1,48,6.432V41.568A6.432,6.432,0,0,1,41.568,48H6.432A6.432,6.432,0,0,1,0,41.568V6.432A6.432,6.432,0,0,1,6.432,0Z" transform="translate(53.603 205.293)" fill="#d39e27"/><g transform="translate(61.821 211.674)"><path d="M107.853,248.544l-5.377-5.377a2,2,0,0,0-2.829,0l-2.439,2.441a2,2,0,0,1-2.64.166,45.024,45.024,0,0,1-6.147-5.352,44.99,44.99,0,0,1-5.352-6.148,2,2,0,0,1,.168-2.64l2.438-2.438a2,2,0,0,0,0-2.83L80.3,220.99a2,2,0,0,0-2.829,0l-3.242,3.243c-3.438,3.438,1.11,13.97,8.76,21.622s18.185,12.2,21.622,8.76l3.242-3.244A2,2,0,0,0,107.853,248.544Z" transform="translate(-73.064 -220.405)" fill="#fff"/></g></g></g></svg>