<svg xmlns="http://www.w3.org/2000/svg" width="42.414" height="33.291" viewBox="0 0 42.414 33.291"><g transform="translate(-233.983 -214.831)"><path d="M276.287,219.57A5.866,5.866,0,0,0,275.072,217a5.02,5.02,0,0,0-.4-.443,5.87,5.87,0,0,0-4.16-1.724H239.866a5.878,5.878,0,0,0-4.16,1.724,5.178,5.178,0,0,0-.4.443,5.8,5.8,0,0,0-1.209,2.572,5.7,5.7,0,0,0-.115,1.144v21.525a5.846,5.846,0,0,0,.487,2.336,5.768,5.768,0,0,0,1.236,1.823c.132.131.263.252.405.372a5.878,5.878,0,0,0,3.754,1.352h30.647a5.84,5.84,0,0,0,3.755-1.357,5.137,5.137,0,0,0,.405-.367,5.9,5.9,0,0,0,1.242-1.823v-.005a5.823,5.823,0,0,0,.481-2.331V220.715A6.061,6.061,0,0,0,276.287,219.57Zm-38.451-.887a2.842,2.842,0,0,1,2.031-.843h30.647a2.827,2.827,0,0,1,2.288,1.144l-16.063,14a2.357,2.357,0,0,1-3.1,0l-16.057-14.005A2.136,2.136,0,0,1,237.836,218.684Zm-.843,23.555V222.094l11.624,10.141L237,242.364A.846.846,0,0,1,236.993,242.239Zm33.52,2.873H239.866a2.835,2.835,0,0,1-1.423-.377L250.7,234.052l1.144,1a5.094,5.094,0,0,0,6.693,0l1.144-1,12.254,10.683A2.839,2.839,0,0,1,270.513,245.112Zm2.874-2.873a.892.892,0,0,1-.006.125L261.763,232.24,273.387,222.1Z" transform="translate(0 0)" fill="#d39e27"/></g></svg>