<svg xmlns="http://www.w3.org/2000/svg" width="45" height="45" viewBox="0 0 45 45"><path d="M640.5,368A22.5,22.5,0,1,0,663,390.5,22.5,22.5,0,0,0,640.5,368Zm.433,19.107.022,0A4.508,4.508,0,0,1,648.632,383a9,9,0,0,0,2.384-.837c.156-.076.314-.151.468-.235A4.5,4.5,0,0,1,650.065,384a4.138,4.138,0,0,1-.556.382l.04-.006c-.013.008-.024.019-.038.027a9.034,9.034,0,0,0,2.119-.522c.15-.052.3-.1.45-.163a9.166,9.166,0,0,1-2.23,2.308q.013.289.013.583A12.813,12.813,0,0,1,630.14,397.4a9.069,9.069,0,0,0,5.679-1.2,9.544,9.544,0,0,0,.991-.647l-.025,0,.025-.018a4.441,4.441,0,0,1-4.2-3.127,4.247,4.247,0,0,0,1.7-.014c.105-.015.212-.027.315-.044-.014,0-.026-.009-.04-.012.014,0,.03,0,.044-.009a4.508,4.508,0,0,1-3.614-4.418c0-.017,0-.034,0-.051l0,0a4.49,4.49,0,0,0,1.6.522c.141.024.283.045.425.058-.009-.007-.018-.014-.028-.021l.039,0a4.484,4.484,0,0,1-1.532-5.738c.047-.09.09-.183.144-.27a12.79,12.79,0,0,0,8.157,4.583c.366.053.732.1,1.1.122Z" transform="translate(-618 -368)" fill="#fff"/></svg>