<svg id="レイヤー_1" data-name="レイヤー 1" xmlns="http://www.w3.org/2000/svg" viewBox="0 0 243.68 30.26"><defs><style>.cls-1{isolation:isolate;}.cls-2{fill:#fff;}</style></defs><title>アートボード 1</title><g id="Co-Work_MdN" data-name="Co-Work MdN" class="cls-1"><g class="cls-1"><path class="cls-2" d="M21.26,22.4a1.36,1.36,0,0,1,.48.09,1.29,1.29,0,0,1,.46.31l2.68,2.82a11.11,11.11,0,0,1-4.41,3.47,15.45,15.45,0,0,1-6.27,1.17,15,15,0,0,1-5.95-1.13A12.82,12.82,0,0,1,3.79,26,13.72,13.72,0,0,1,1,21.29a17.52,17.52,0,0,1-1-5.93,15.58,15.58,0,0,1,1.12-6A13.8,13.8,0,0,1,9.06,1.58,16.86,16.86,0,0,1,15.24.48a16.05,16.05,0,0,1,3.09.29,14.76,14.76,0,0,1,2.71.8,13.07,13.07,0,0,1,2.32,1.22,11.18,11.18,0,0,1,1.88,1.57L23,7.42a2.79,2.79,0,0,1-.52.51,1.38,1.38,0,0,1-.84.23A1.45,1.45,0,0,1,20.92,8c-.21-.11-.44-.24-.68-.39l-.79-.5a6.06,6.06,0,0,0-1-.5,8.93,8.93,0,0,0-1.38-.39,9.17,9.17,0,0,0-1.85-.16,8.49,8.49,0,0,0-3.36.65A7.34,7.34,0,0,0,9.23,8.57a8.63,8.63,0,0,0-1.7,2.93,11.41,11.41,0,0,0-.61,3.86,11.93,11.93,0,0,0,.61,4,8.76,8.76,0,0,0,1.66,2.93,7.07,7.07,0,0,0,2.45,1.81,7.36,7.36,0,0,0,3,.62,14.44,14.44,0,0,0,1.68-.09,6.63,6.63,0,0,0,1.41-.31A7,7,0,0,0,19,23.73a8,8,0,0,0,1.19-.87,2.55,2.55,0,0,1,.52-.33A1.33,1.33,0,0,1,21.26,22.4Z"/><path class="cls-2" d="M35.2,8.88a12.05,12.05,0,0,1,4.3.74A9.27,9.27,0,0,1,45,15.09a12.14,12.14,0,0,1,.77,4.43A12.4,12.4,0,0,1,45,24a9.32,9.32,0,0,1-5.49,5.52,11.84,11.84,0,0,1-4.3.75,12,12,0,0,1-4.33-.75,9.62,9.62,0,0,1-3.36-2.14A9.43,9.43,0,0,1,25.33,24a12.4,12.4,0,0,1-.77-4.47,12.14,12.14,0,0,1,.77-4.43,9.4,9.4,0,0,1,2.18-3.35,9.57,9.57,0,0,1,3.36-2.12A12.18,12.18,0,0,1,35.2,8.88Zm0,16.78a3.51,3.51,0,0,0,3.15-1.51,8.4,8.4,0,0,0,1-4.59,8.33,8.33,0,0,0-1-4.58,3.52,3.52,0,0,0-3.15-1.5A3.61,3.61,0,0,0,32,15a8.24,8.24,0,0,0-1,4.58,8.3,8.3,0,0,0,1,4.59A3.6,3.6,0,0,0,35.2,25.66Z"/><path class="cls-2" d="M46.76,15.28h10.8v5H46.76Z"/><path class="cls-2" d="M57,.8h5.68a2.52,2.52,0,0,1,1.47.4,1.86,1.86,0,0,1,.77,1.06l4,15.2c.13.49.27,1,.4,1.58a15.74,15.74,0,0,1,.3,1.76c.13-.63.28-1.22.44-1.77s.31-1.08.46-1.57L75.2,2.26a2.13,2.13,0,0,1,.77-1A2.28,2.28,0,0,1,77.4.8h2a2.51,2.51,0,0,1,1.45.39,2,2,0,0,1,.79,1.07l4.68,15.2c.15.47.3,1,.46,1.49s.3,1.09.42,1.69q.17-.88.33-1.68c.11-.53.23-1,.35-1.5l4-15.2a1.89,1.89,0,0,1,.76-1A2.39,2.39,0,0,1,94.08.8H99.4l-9,29.14H84.28L78.8,11.88c-.09-.28-.19-.59-.29-.92s-.2-.69-.29-1.06c-.09.37-.19.73-.29,1.06s-.2.64-.29.92L72.08,29.94H66Z"/><path class="cls-2" d="M108.24,8.88a12.05,12.05,0,0,1,4.3.74A9.27,9.27,0,0,1,118,15.09a12.14,12.14,0,0,1,.77,4.43A12.4,12.4,0,0,1,118,24a9.32,9.32,0,0,1-5.49,5.52,11.84,11.84,0,0,1-4.3.75,12,12,0,0,1-4.33-.75,9.62,9.62,0,0,1-3.36-2.14A9.43,9.43,0,0,1,98.37,24a12.4,12.4,0,0,1-.77-4.47,12.14,12.14,0,0,1,.77-4.43,9.4,9.4,0,0,1,2.18-3.35,9.57,9.57,0,0,1,3.36-2.12A12.18,12.18,0,0,1,108.24,8.88Zm0,16.78a3.51,3.51,0,0,0,3.15-1.51,8.4,8.4,0,0,0,1-4.59,8.33,8.33,0,0,0-1-4.58,3.52,3.52,0,0,0-3.15-1.5A3.61,3.61,0,0,0,105,15a8.24,8.24,0,0,0-1,4.58,8.3,8.3,0,0,0,1,4.59A3.6,3.6,0,0,0,108.24,25.66Z"/><path class="cls-2" d="M120.2,29.94V9.2h3.68a3.31,3.31,0,0,1,.77.08,1.33,1.33,0,0,1,.52.25,1,1,0,0,1,.32.45,4.06,4.06,0,0,1,.19.68L126,12.6a10.16,10.16,0,0,1,2.56-2.78,5.21,5.21,0,0,1,3.1-1,3.58,3.58,0,0,1,2.28.68l-.8,4.56a.87.87,0,0,1-.32.59,1.1,1.1,0,0,1-.64.17,4.24,4.24,0,0,1-.8-.09,6.2,6.2,0,0,0-1.16-.09,4.26,4.26,0,0,0-3.84,2.6V29.94Z"/><path class="cls-2" d="M140.92,0V16.78h.92a1.94,1.94,0,0,0,.89-.16,1.7,1.7,0,0,0,.59-.58l3.92-5.84a2.16,2.16,0,0,1,.81-.76,2.6,2.6,0,0,1,1.19-.24h5.68l-5.36,7.38a5.66,5.66,0,0,1-.83.92,6.25,6.25,0,0,1-1,.72,6,6,0,0,1,1.56,1.8l5.84,9.92h-5.6a3,3,0,0,1-1.21-.23,1.75,1.75,0,0,1-.83-.81l-3.92-7.34a1.57,1.57,0,0,0-.58-.65,2.09,2.09,0,0,0-.9-.15h-1.2v9.18h-6.2V0Z"/><path class="cls-2" d="M177.15,18.2c.24.55.48,1.11.71,1.68q.33-.89.72-1.71c.25-.55.51-1.09.78-1.61l7.48-14.74a2.42,2.42,0,0,1,.41-.59,1.33,1.33,0,0,1,.47-.31,1.55,1.55,0,0,1,.59-.1h5.93V29.94h-6V13.18q0-1.21.12-2.64l-7.72,15a2.57,2.57,0,0,1-1,1.06,2.69,2.69,0,0,1-1.39.36h-.92a2.67,2.67,0,0,1-1.39-.36,2.5,2.5,0,0,1-1-1.06l-7.76-15c.05.47.09.93.12,1.39s0,.88,0,1.27V29.94h-6V.82h5.93a1.59,1.59,0,0,1,.59.1,1.42,1.42,0,0,1,.47.31,2.73,2.73,0,0,1,.41.59l7.5,14.8C176.64,17.12,176.9,17.65,177.15,18.2Z"/><path class="cls-2" d="M211.6,29.94a1.73,1.73,0,0,1-1-.26,1.34,1.34,0,0,1-.55-.78l-.48-1.58a13.2,13.2,0,0,1-1.3,1.2,8.67,8.67,0,0,1-1.47.93,8,8,0,0,1-1.7.6,8.82,8.82,0,0,1-2,.21,6.39,6.39,0,0,1-3-.72,6.82,6.82,0,0,1-2.38-2.08,10.49,10.49,0,0,1-1.57-3.33,16.16,16.16,0,0,1-.57-4.49,13.9,13.9,0,0,1,.64-4.31,10.44,10.44,0,0,1,1.81-3.44,8.34,8.34,0,0,1,2.81-2.27,7.93,7.93,0,0,1,3.62-.82,7,7,0,0,1,2.71.47,7.64,7.64,0,0,1,2,1.23V0h6.2V29.94Zm-6.28-4.44a5.22,5.22,0,0,0,1.23-.13,4.67,4.67,0,0,0,1-.37,4.83,4.83,0,0,0,.87-.6,8.17,8.17,0,0,0,.81-.84v-8.8a4.14,4.14,0,0,0-1.53-1.09,4.67,4.67,0,0,0-1.71-.31,3.59,3.59,0,0,0-1.58.34,3.22,3.22,0,0,0-1.25,1.09,5.67,5.67,0,0,0-.83,1.95,12.13,12.13,0,0,0-.3,2.9,13.48,13.48,0,0,0,.24,2.76,5.58,5.58,0,0,0,.67,1.81,2.56,2.56,0,0,0,1,1A2.93,2.93,0,0,0,205.32,25.5Z"/><path class="cls-2" d="M222.54.84a2.13,2.13,0,0,1,.54.15,1.86,1.86,0,0,1,.46.31,5.71,5.71,0,0,1,.5.54l13.84,17.5c-.06-.56-.1-1.1-.12-1.63s0-1,0-1.49V.8h6V29.94h-3.52a3.24,3.24,0,0,1-1.32-.24,2.77,2.77,0,0,1-1-.88L224.06,11.46c0,.51.07,1,.1,1.49s0,.94,0,1.37V29.94h-6V.8h3.56A5.22,5.22,0,0,1,222.54.84Z"/></g></g></svg>