<svg xmlns="http://www.w3.org/2000/svg" width="37.457" height="37.457" viewBox="0 0 37.457 37.457"><path d="M672.327,73.753l4.742,3.659.066.038.029.017a1.087,1.087,0,0,0,1.315-.291l.032-.03,5.813-6.877a.789.789,0,1,0-1.167-1.039l-5.434,5.8-4.195-2.921a1.027,1.027,0,0,0-1.2,1.64Z" transform="translate(-659.074 -57.267)" fill="#d39e27"/><path d="M647.714,89.894a6.991,6.991,0,0,1,.032-.749h-2.977c-.018.246-.023.5-.023.749s.005.5.023.75h2.977A7.01,7.01,0,0,1,647.714,89.894Z" transform="translate(-640.366 -71.166)" fill="#d39e27"/><path d="M667.522,54.069c.281-.178.569-.346.86-.5l.114-.055-1.483-2.577a11.45,11.45,0,0,0-1.084.623l1.484,2.578Z" transform="translate(-654.909 -44.939)" fill="#d39e27"/><path d="M649.927,68.029l2.577,1.484.624-1.082-2.578-1.484A11.5,11.5,0,0,0,649.927,68.029Z" transform="translate(-643.923 -55.926)" fill="#d39e27"/><path d="M721.459,108.038c-.155.292-.318.579-.5.856l-.074.109,2.578,1.484c.228-.351.436-.707.628-1.077l-2.571-1.489Z" transform="translate(-692.636 -84.055)" fill="#d39e27"/><path d="M652.559,108.033l-.06-.113-2.572,1.483a10.649,10.649,0,0,0,.622,1.083L653.128,109l-.075-.109A9.258,9.258,0,0,1,652.559,108.033Z" transform="translate(-643.923 -84.055)" fill="#d39e27"/><path d="M667.522,121.974l-.109-.074-1.484,2.578a11.638,11.638,0,0,0,1.084.628l1.483-2.578-.114-.055A9.451,9.451,0,0,1,667.522,121.974Z" transform="translate(-654.909 -93.653)" fill="#d39e27"/><path d="M706.9,53.514l1.083.629,1.484-2.578a11.544,11.544,0,0,0-1.078-.623Z" transform="translate(-683.038 -44.939)" fill="#d39e27"/><path d="M688.13,127.669v2.973c.247.022.5.027.748.027s.5,0,.749-.027v-3h-1.5Z" transform="translate(-670.15 -97.592)" fill="#d39e27"/><path d="M689.627,48.764V45.791c-.246-.022-.5-.027-.749-.027s-.5,0-.748.027v3h1.5Z" transform="translate(-670.15 -41.384)" fill="#d39e27"/><path d="M706.9,122.534l1.49,2.573c.37-.193.727-.4,1.078-.628l-1.484-2.578Z" transform="translate(-683.038 -93.653)" fill="#d39e27"/><path d="M724.09,68.029a11.655,11.655,0,0,0-.628-1.083l-2.578,1.484.63,1.082Z" transform="translate(-692.636 -55.926)" fill="#d39e27"/><path d="M729.63,89.145h-3.008v1.5h3.008c.019-.247.023-.5.023-.75S729.648,89.391,729.63,89.145Z" transform="translate(-696.575 -71.166)" fill="#d39e27"/><path d="M649.5,31.793a18.729,18.729,0,1,0,18.728,18.729A18.728,18.728,0,0,0,649.5,31.793Zm0,35.041a16.312,16.312,0,1,1,11.534-4.778A16.254,16.254,0,0,1,649.5,66.834Z" transform="translate(-630.775 -31.793)" fill="#d39e27"/></svg>