<svg xmlns="http://www.w3.org/2000/svg" width="40.126" height="38.222" viewBox="0 0 40.126 38.222"><path d="M82.592,44.972l-2.853.4a19.108,19.108,0,1,0-18.162,25.04c.562,0,1.122-.024,1.675-.073l-.385-4.433h0q-.635.054-1.29.055A14.673,14.673,0,1,1,75.236,46.006l-2.438.343,6.289,9.189L80.493,51.3h.195c0-.172-.02-.339-.025-.51Z" transform="translate(-42.466 -32.191)" fill="#d39e27"/><path d="M140.526,119.3c-.24.355-.5.7-.768,1.037l3.46,2.8q.525-.649,1-1.345l-3.688-2.49Z" transform="translate(-109.258 -91.991)" fill="#d39e27"/><path d="M117.17,136.076a14.592,14.592,0,0,1-2.217.756l1.092,4.315a18.972,18.972,0,0,0,2.9-.989l-1.772-4.082Z" transform="translate(-92.229 -103.509)" fill="#d39e27"/><path d="M128.629,129.44l2.4,3.747a19.094,19.094,0,0,0,2.434-1.851L130.5,128.02A14.659,14.659,0,0,1,128.629,129.44Z" transform="translate(-101.618 -97.979)" fill="#d39e27"/><path d="M83.687,79.357a3.948,3.948,0,0,0,1.132-2.7,3.142,3.142,0,0,0-3.425-3.18,3.218,3.218,0,0,0-3.509,2.884.159.159,0,0,0,.132.2l1.8.294c.116.017.18-.032.18-.131.1-.852.559-1.311,1.312-1.311a1.171,1.171,0,0,1,1.213,1.278,2.29,2.29,0,0,1-.655,1.542l-3.917,4.654a.3.3,0,0,0-.083.229v1.524a.155.155,0,0,0,.164.164h6.622a.155.155,0,0,0,.164-.164V83.012a.155.155,0,0,0-.164-.163h-3.9v-.033Z" transform="translate(-66.771 -60.532)" fill="#d39e27"/><path d="M114.415,83.569a.155.155,0,0,0,.162-.164V81.75a.155.155,0,0,0-.162-.165h-.738l-.1-.1V79.078a.155.155,0,0,0-.164-.164h-1.9a.156.156,0,0,0-.165.164v2.409l-.1.1H109.2v-.049l3.341-7.326c.033-.1,0-.165-.113-.165h-2.083a.218.218,0,0,0-.228.132l-3.344,7.358-.032.2V83.4a.155.155,0,0,0,.164.164h4.342l.1.1v1.36a.155.155,0,0,0,.165.164h1.9a.154.154,0,0,0,.164-.164v-1.36l.1-.1Z" transform="translate(-86.594 -60.925)" fill="#d39e27"/></svg>