<svg xmlns="http://www.w3.org/2000/svg" width="36.316" height="37.54" viewBox="0 0 36.316 37.54"><path d="M252.207,79.751,254.7,78.44l2.5,1.311-.475-2.777,2.017-1.965-2.79-.409L254.7,72.072,253.455,74.6l-2.79.409,2.016,1.965Z" transform="translate(-245.436 -59.911)" fill="#d39e27"/><path d="M266.156,39.294l1.951-1.026,1.954,1.026-.373-2.175,1.581-1.539-2.185-.321-.977-1.979-.974,1.979-2.184.321,1.578,1.539Z" transform="translate(-255.242 -33.28)" fill="#d39e27"/><path d="M234.964,50.77l1.586-.834,1.587.834-.3-1.767,1.284-1.251-1.776-.26-.793-1.608-.793,1.608-1.775.26L235.266,49Z" transform="translate(-233.983 -41.933)" fill="#d39e27"/><path d="M258.819,38.914a17.153,17.153,0,0,1-23.1,23.1,18.335,18.335,0,1,0,23.1-23.1Z" transform="translate(-235.171 -37.148)" fill="#d39e27"/></svg>